<?xml version="1.0" standalone="no"?>
<!DOCTYPE svg PUBLIC "-//W3C//DTD SVG 20010904//EN"
 "http://www.w3.org/TR/2001/REC-SVG-20010904/DTD/svg10.dtd">
<svg version="1.0" xmlns="http://www.w3.org/2000/svg"
 width="512.000000pt" height="512.000000pt" viewBox="0 0 512.000000 512.000000"
 preserveAspectRatio="xMidYMid meet">
<metadata>
Created by potrace 1.11, written by Peter Selinger 2001-2013
</metadata>
<g transform="translate(0.000000,512.000000) scale(0.100000,-0.100000)"
fill="#000000" stroke="none">
<path d="M2300 4735 c-52 -7 -138 -23 -190 -35 -52 -12 -108 -23 -125 -24 -16
-1 -42 -3 -56 -4 -14 -1 -39 -13 -55 -27 -16 -14 -45 -28 -64 -31 -37 -7 -131
-49 -190 -85 -166 -102 -235 -139 -261 -139 -20 0 -29 -5 -29 -17 0 -21 -76
-93 -98 -93 -19 0 -196 -176 -285 -283 -231 -278 -402 -650 -472 -1029 -21
-116 -23 -140 -13 -161 5 -10 11 -94 13 -185 3 -169 6 -196 30 -337 19 -116
67 -283 114 -403 12 -29 21 -56 21 -61 0 -4 -59 -66 -130 -137 -128 -126 -130
-129 -103 -135 15 -4 22 -7 14 -8 -8 0 -11 -4 -8 -7 4 -4 13 -1 22 6 10 8 15
9 15 1 0 -6 5 -11 11 -11 5 0 8 4 5 8 -2 4 4 8 15 8 23 0 24 -4 2 -30 -18 -21
-18 -21 3 -3 15 12 33 16 62 13 23 -2 40 0 37 4 -3 5 -14 7 -25 5 -12 -2 -18
0 -15 5 4 7 40 7 40 0 0 -1 26 -3 58 -5 31 -1 60 -5 64 -8 3 -4 12 -2 19 4 8
7 14 7 19 -1 3 -5 11 -10 16 -10 6 0 7 4 4 10 -3 6 1 7 9 4 9 -3 16 -10 16
-16 0 -5 -5 -6 -11 -3 -6 4 -5 -2 3 -14 7 -12 17 -21 22 -21 4 0 3 6 -3 14 -9
11 -9 16 0 22 8 4 9 3 5 -5 -4 -6 0 -14 8 -17 9 -3 16 -12 16 -20 0 -8 5 -14
10 -14 6 0 10 -5 10 -11 0 -6 -9 -8 -20 -4 -11 3 -20 2 -20 -3 0 -6 11 -9 25
-7 20 2 33 -8 60 -45 19 -26 35 -52 35 -58 0 -6 -40 -94 -89 -196 -49 -101
-91 -200 -94 -219 -2 -19 -8 -41 -12 -47 -6 -9 -4 -11 5 -5 10 6 12 3 8 -13
-4 -12 -2 -22 4 -22 5 0 6 -4 3 -10 -3 -5 -1 -10 4 -10 6 0 11 -9 11 -21 0
-11 4 -17 10 -14 5 3 10 -1 10 -9 0 -9 5 -16 11 -16 7 0 9 -9 6 -22 -6 -22 -6
-22 8 -4 11 15 15 16 15 5 0 -8 -5 -20 -12 -27 -9 -9 -9 -12 0 -12 7 0 12 5
12 11 0 5 4 7 10 4 6 -4 7 1 4 12 -6 15 -4 15 9 -2 11 -13 16 -15 17 -6 0 10
3 11 13 2 8 -6 17 -8 20 -4 4 3 7 0 7 -7 0 -7 3 -10 7 -7 3 4 12 2 20 -4 8 -8
13 -8 13 -1 0 11 25 10 36 -1 13 -13 23 -7 18 11 -2 9 3 2 12 -15 17 -32 34
-43 34 -23 0 6 -4 10 -9 10 -17 0 -20 29 -3 42 15 11 16 11 4 -3 -10 -14 -10
-18 5 -25 10 -4 28 -9 40 -10 22 -3 21 -2 -5 22 l-27 24 25 20 c14 11 33 18
43 16 9 -2 17 0 17 5 0 5 -8 9 -17 9 -17 1 -17 1 0 11 12 7 16 17 11 32 -5 18
-4 20 7 10 7 -7 16 -13 20 -13 13 0 17 27 7 41 -8 11 -9 11 -4 -3 3 -10 1 -20
-5 -23 -5 -4 -8 6 -7 24 1 16 6 27 12 24 5 -4 7 1 3 11 -5 11 -3 15 5 10 8 -5
9 -2 5 10 -4 11 -3 15 4 10 7 -4 9 0 5 13 -4 12 -1 25 9 33 8 7 12 16 9 21 -3
5 0 9 6 9 7 0 9 7 6 16 -5 14 -4 15 8 5 7 -6 21 -9 30 -5 9 3 16 2 16 -3 0 -6
12 -15 26 -21 14 -7 23 -16 19 -21 -3 -5 0 -13 6 -17 8 -4 9 -3 5 4 -12 21 8
13 39 -14 17 -15 40 -33 52 -41 13 -8 20 -20 16 -26 -3 -6 -1 -7 5 -3 11 6 50
-8 62 -23 3 -3 17 -12 32 -20 15 -8 24 -19 21 -24 -4 -6 0 -8 9 -4 9 3 20 1
25 -4 5 -5 23 -12 39 -15 16 -3 31 -9 34 -13 3 -5 15 -11 28 -15 12 -4 22 -15
22 -26 0 -10 5 -22 11 -26 8 -4 9 0 4 15 -4 12 -2 21 4 21 6 0 11 -5 11 -11 0
-5 5 -7 11 -3 8 4 8 0 0 -15 -8 -14 -9 -27 -2 -40 6 -10 7 -21 4 -25 -3 -3 -1
-6 6 -6 8 0 10 7 5 22 -6 20 -5 21 10 9 10 -9 16 -10 16 -2 0 6 5 11 10 11 6
0 9 -10 7 -22 -2 -13 -2 -17 0 -10 4 10 9 7 20 -8 14 -20 17 -21 25 -6 5 9 7
20 4 25 -9 13 25 23 39 11 6 -5 14 -7 17 -5 3 3 13 -6 22 -20 21 -32 2 -33
-28 0 -13 14 -27 25 -32 25 -5 0 -3 -4 5 -9 11 -7 9 -13 -8 -30 -12 -12 -19
-27 -15 -32 4 -8 -2 -9 -17 -5 -21 6 -22 6 -6 -4 10 -7 22 -9 25 -5 7 6 8 10
11 36 0 5 5 8 11 4 5 -3 7 -13 4 -23 -5 -14 -4 -14 4 -3 6 8 8 21 5 29 -5 12
-3 12 16 1 11 -8 21 -17 21 -22 0 -4 -4 -5 -10 -2 -11 7 -14 -8 -4 -18 4 -3
15 4 24 16 11 12 22 18 27 13 4 -5 2 -11 -5 -13 -17 -6 -36 -43 -22 -43 5 0
10 7 10 16 0 14 3 14 15 4 15 -13 21 -35 7 -26 -4 2 -14 0 -22 -5 -12 -7 -10
-8 7 -6 31 4 38 14 24 30 -13 16 -4 50 10 41 5 -3 7 -10 3 -15 -9 -15 35 -43
68 -45 15 -1 29 4 31 11 7 16 -10 42 -20 32 -4 -5 -1 -12 6 -16 9 -6 10 -11 2
-15 -6 -4 -11 -2 -11 4 0 6 -4 9 -9 6 -5 -3 -15 2 -22 11 -12 15 -12 16 3 10
10 -3 20 -1 24 6 4 7 4 9 -1 5 -4 -4 -14 -3 -22 3 -9 9 -13 8 -13 0 0 -6 -4
-11 -10 -11 -5 0 -9 6 -7 13 1 7 -7 12 -20 11 -13 -1 -20 2 -18 6 3 4 -3 7
-12 6 -9 0 -18 6 -20 14 -3 11 -2 12 5 2 5 -7 16 -10 25 -6 10 3 17 1 17 -5 0
-6 7 -8 15 -5 8 4 15 2 15 -3 0 -8 18 -12 68 -14 12 -1 22 -5 22 -9 0 -5 11
-7 25 -5 14 1 28 -1 30 -5 3 -5 14 -6 25 -3 11 3 20 0 20 -6 0 -7 -10 -10 -25
-7 -22 4 -24 2 -15 -14 8 -16 8 -18 -4 -14 -9 3 -14 11 -13 17 1 7 -4 11 -10
10 -7 -2 -13 1 -13 5 0 5 -7 9 -16 9 -13 0 -11 -4 5 -17 12 -8 19 -19 15 -23
-12 -12 -26 -8 -18 5 5 10 4 10 -6 1 -20 -19 -2 -29 22 -14 18 11 20 11 15 -3
-4 -9 -4 -23 -1 -31 5 -12 10 -10 25 9 12 15 16 31 12 43 -6 16 -5 16 10 4 9
-7 15 -17 12 -21 -9 -15 26 -43 38 -31 19 19 31 12 13 -8 -13 -14 -14 -21 -5
-27 8 -5 10 -3 4 6 -6 10 -4 12 8 7 11 -4 14 -2 10 9 -3 9 1 14 12 14 12 0 15
5 10 21 -6 18 -5 19 14 7 12 -7 21 -16 21 -21 0 -4 -4 -5 -10 -2 -6 3 -7 -1
-4 -10 4 -10 1 -14 -7 -12 -8 2 -11 2 -6 0 4 -3 5 -9 1 -14 -3 -5 -1 -9 5 -9
5 0 12 6 14 13 4 9 6 9 6 0 1 -7 6 -13 12 -13 8 0 7 5 -1 15 -24 28 -3 26 28
-3 22 -21 32 -25 36 -16 3 7 1 16 -4 19 -6 4 -10 11 -10 17 0 7 5 7 14 -1 7
-6 21 -9 30 -5 12 4 15 2 10 -9 -3 -9 3 -21 15 -29 12 -8 18 -17 15 -20 -3 -3
0 -9 7 -14 8 -5 10 -3 4 6 -6 10 -3 12 11 7 18 -7 18 -6 2 6 -13 11 -15 16 -6
25 16 16 29 15 22 -1 -3 -8 3 -20 13 -27 15 -12 16 -12 6 0 -18 20 -16 35 2
20 10 -9 15 -9 15 -1 0 6 -5 11 -11 11 -5 0 -7 5 -4 10 4 6 18 0 37 -15 16
-14 35 -25 41 -24 8 0 7 2 -1 6 -10 4 -9 9 4 24 9 10 22 19 28 19 6 0 5 -5 -2
-12 -7 -7 -12 -16 -12 -21 0 -5 9 1 20 14 10 13 19 19 20 12 0 -6 -4 -15 -10
-18 -5 -3 -9 -14 -9 -23 1 -15 2 -14 6 1 5 18 5 18 26 0 22 -18 22 -18 4 3
-17 20 -17 22 4 45 18 21 20 21 14 4 -12 -35 -10 -39 13 -41 23 -1 66 41 57
56 -3 5 -1 11 5 15 10 6 14 -6 11 -38 -1 -9 2 -17 7 -17 5 0 9 12 8 27 0 14 4
28 11 30 7 3 10 -5 9 -21 -2 -14 1 -23 5 -20 5 3 9 -2 9 -11 0 -9 -4 -14 -9
-10 -6 3 -14 -3 -20 -12 -9 -17 -10 -17 -23 0 -14 18 -14 18 -28 0 -11 -14
-11 -16 0 -6 11 10 16 9 27 -5 12 -16 14 -16 27 1 8 10 18 18 23 18 4 0 8 10
8 23 0 13 4 28 9 33 5 4 6 3 3 -3 -7 -13 17 -37 39 -40 8 -1 14 2 14 8 0 6 -6
8 -14 5 -8 -3 -20 1 -26 9 -10 12 -7 13 21 10 19 -2 40 1 47 6 8 7 12 7 12 -3
1 -10 4 -8 11 4 5 9 15 17 21 17 7 0 7 -5 -1 -14 -8 -10 -9 -16 -1 -21 13 -8
30 3 30 20 0 7 7 15 15 19 10 3 14 0 12 -12 -1 -9 2 -18 7 -19 5 0 13 -8 18
-17 10 -18 28 -21 28 -5 0 5 -4 7 -10 4 -9 -6 -15 8 -11 29 1 5 -6 3 -15 -5
-15 -12 -16 -12 -10 8 4 12 2 24 -4 28 -6 3 -8 11 -5 16 7 11 26 12 24 1 -3
-19 2 -33 10 -28 5 4 11 3 14 -1 2 -5 3 -3 1 3 -1 6 11 21 27 33 16 12 29 17
29 12 0 -5 -10 -17 -22 -25 -12 -9 -19 -18 -16 -22 4 -3 19 8 34 25 27 31 49
36 24 6 -10 -12 -10 -19 -2 -27 7 -7 12 -8 12 -3 0 5 7 0 16 -11 14 -18 15
-18 4 4 -6 12 -15 20 -21 17 -17 -11 -9 12 11 30 16 15 22 15 35 5 10 -8 15
-9 15 -1 0 6 -5 11 -11 11 -5 0 -7 5 -4 10 4 7 13 7 26 0 11 -6 24 -8 29 -5 6
4 9 -4 7 -16 -2 -18 3 -23 25 -24 15 -1 25 2 22 6 -2 4 -14 6 -25 4 -16 -3
-19 0 -15 12 4 8 2 21 -4 28 -13 15 -2 47 13 38 6 -3 7 -1 3 5 -4 7 -2 12 4
12 6 0 9 4 6 9 -7 10 22 37 30 28 3 -3 20 2 37 12 37 20 58 17 50 -7 -3 -10 1
-8 11 6 17 21 36 22 36 1 0 -6 -5 -7 -12 -3 -7 5 -8 3 -3 -5 5 -9 10 -10 18
-2 7 7 6 15 -4 27 -11 14 -11 18 6 30 13 10 22 11 32 3 7 -6 13 -8 13 -3 0 5
5 2 11 -6 9 -13 10 -13 6 0 -2 8 -10 14 -16 13 -6 -2 -11 2 -11 8 0 6 13 8 30
5 17 -2 28 0 24 5 -3 5 -10 7 -15 4 -5 -4 -9 -2 -9 3 0 9 26 20 41 18 3 -1 13
7 23 16 10 10 24 18 32 18 8 0 14 4 14 9 0 5 14 14 30 21 17 7 30 17 30 23 0
6 3 8 6 4 3 -3 16 3 27 14 12 11 27 17 35 14 7 -2 11 -1 7 4 -3 5 9 20 27 32
54 37 209 173 269 236 248 257 437 597 523 942 26 99 30 124 51 276 12 89 13
434 1 485 -3 14 -6 45 -7 70 -2 138 -94 431 -202 646 -59 118 -166 277 -258
384 -108 126 -272 291 -279 280 -3 -5 -19 3 -35 18 -51 47 -235 165 -340 219
-224 114 -411 174 -685 218 -80 13 -457 13 -550 0z m-1050 -3715 c0 -5 -4 -10
-10 -10 -5 0 -10 5 -10 10 0 6 5 10 10 10 6 0 10 -4 10 -10z m2195 -289 c-3
-6 -11 -8 -17 -5 -6 4 -5 9 3 15 16 10 23 4 14 -10z m-1655 -32 c0 -5 4 -8 9
-4 5 3 15 -1 23 -8 7 -8 20 -12 28 -10 10 3 8 -1 -4 -11 -11 -9 -14 -16 -8
-16 7 0 12 -4 12 -10 0 -21 -18 -9 -30 20 -8 20 -16 27 -24 22 -15 -12 -46
-11 -46 1 0 5 7 7 14 4 10 -4 13 -1 9 9 -3 7 0 14 6 14 6 0 11 -5 11 -11z
m-715 -9 c3 -5 2 -10 -4 -10 -5 0 -13 5 -16 10 -3 6 -2 10 4 10 5 0 13 -4 16
-10z m2213 -22 c-3 -7 -10 -14 -16 -14 -7 -1 -16 -2 -21 -3 -5 0 -12 -8 -15
-17 -3 -8 -2 -13 3 -10 5 3 14 -1 21 -9 15 -18 7 -19 -22 -4 -15 8 -22 8 -28
-1 -10 -15 -70 -23 -70 -9 0 6 4 8 9 5 5 -4 7 4 4 16 -5 23 -4 23 17 -2 20
-23 20 -23 10 -2 -6 12 -8 22 -5 22 14 0 21 3 33 12 7 6 15 8 18 5 3 -3 17 1
32 9 33 17 35 17 30 2z m-18 -28 c0 -5 -5 -10 -11 -10 -5 0 -7 5 -4 10 3 6 8
10 11 10 2 0 4 -4 4 -10z m-130 -21 c0 -12 -58 -69 -70 -69 -10 0 -8 20 3 38
7 10 3 10 -17 0 -24 -10 -30 -19 -23 -34 4 -9 -33 -25 -44 -19 -5 4 -16 1 -24
-5 -8 -7 -15 -9 -15 -5 0 4 -7 2 -15 -5 -12 -10 -18 -10 -30 0 -12 10 -15 10
-15 0 0 -10 -3 -10 -15 0 -12 10 -18 10 -32 -1 -9 -8 -14 -9 -10 -3 4 7 0 17
-8 24 -12 10 -15 10 -15 0 0 -7 -7 -10 -15 -7 -15 6 -28 -7 -32 -32 -3 -20
-20 -34 -44 -38 -21 -3 -21 -2 -5 21 11 18 12 26 3 29 -6 2 -8 8 -4 13 12 13
25 -15 19 -40 -3 -11 -1 -18 3 -14 5 5 9 21 10 36 1 25 -2 28 -26 28 -16 0
-25 -4 -23 -11 3 -7 -2 -17 -9 -24 -12 -9 -16 -8 -21 5 -3 9 -4 19 -2 23 3 4
-4 8 -15 8 -11 1 -23 -5 -26 -13 -5 -13 -7 -13 -14 -2 -7 10 -9 10 -9 -2 0
-13 -1 -13 -10 0 -13 21 -12 27 6 34 8 3 12 2 9 -3 -3 -5 -1 -12 5 -16 5 -3
10 -2 10 3 0 13 39 22 46 11 3 -5 10 -9 15 -9 6 0 8 4 5 8 -3 5 15 8 40 7 25
-1 44 3 44 8 0 6 7 2 15 -9 10 -12 14 -14 13 -4 -4 19 43 20 59 0 11 -13 12
-12 9 6 -4 18 0 21 30 19 19 -2 34 2 34 7 0 5 9 6 20 3 13 -4 20 -2 20 6 0 10
3 10 11 2 14 -14 3 -34 -15 -27 -8 3 -17 0 -21 -6 -5 -8 -11 -8 -21 1 -11 9
-14 9 -14 0 0 -7 -4 -10 -9 -7 -5 3 -14 -1 -21 -9 -9 -10 -9 -15 -1 -15 6 0
11 4 11 8 0 4 9 8 21 9 18 2 19 0 7 -15 -10 -14 -9 -14 9 1 25 22 53 28 69 15
8 -6 11 0 9 22 -1 16 1 27 6 24 5 -3 9 1 10 8 0 10 2 10 6 1 2 -7 9 -13 14
-13 6 0 7 6 3 13 -4 6 -4 9 0 5 5 -4 18 -3 31 2 14 5 26 5 33 -2 6 -6 12 -6
17 3 6 8 4 10 -5 4 -9 -5 -11 -4 -6 3 9 15 26 15 26 1z m-1095 -59 c12 -19
-12 -10 -31 11 -19 22 -19 22 3 10 12 -6 25 -16 28 -21z m205 9 c0 -4 9 -5 20
-2 21 6 28 -11 9 -23 -8 -4 -7 -9 2 -16 10 -7 8 -8 -8 -3 -12 3 -24 1 -28 -4
-4 -7 -11 -7 -19 2 -17 15 0 29 26 21 9 -2 20 1 24 7 4 8 3 9 -4 5 -6 -4 -21
-2 -33 5 -15 8 -19 8 -15 0 4 -6 2 -11 -3 -11 -11 0 -15 13 -6 22 8 7 35 6 35
-3z m65 -9 c-3 -5 -2 -10 4 -10 5 0 12 4 16 9 3 6 15 7 28 4 12 -3 43 -6 70
-7 29 -1 54 -9 64 -19 16 -16 16 -16 -4 -13 -13 3 -24 -2 -27 -10 -4 -11 -2
-12 14 -4 13 7 21 7 25 -1 4 -6 14 -8 22 -5 9 4 13 1 10 -6 -2 -7 -10 -12 -17
-10 -7 2 -21 -5 -31 -14 -20 -18 -41 -11 -37 14 2 11 -4 17 -18 18 -12 1 -26
4 -32 8 -17 10 -25 -13 -11 -32 16 -20 -19 7 -63 50 -30 28 -34 38 -17 38 5 0
7 -4 4 -10z m254 -30 c14 -14 32 -25 39 -24 6 1 17 2 23 3 5 0 7 6 4 11 -3 6
-1 10 4 10 6 0 11 -2 11 -4 0 -2 3 -12 7 -22 4 -12 3 -15 -6 -10 -7 5 -22 -1
-37 -15 l-24 -23 -22 22 c-13 12 -17 22 -11 22 7 0 17 -8 22 -17 10 -17 10
-17 11 -1 0 11 -10 20 -26 24 -14 4 -23 12 -21 19 3 6 -1 12 -8 12 -7 0 -11
-6 -8 -14 3 -7 -1 -13 -8 -13 -7 0 -9 3 -6 6 3 4 2 14 -3 23 -14 27 29 21 59
-9z m-407 -12 c-7 -7 -12 -8 -12 -2 0 14 12 26 19 19 2 -3 -1 -11 -7 -17z
m838 -8 c0 -5 -5 -10 -11 -10 -5 0 -7 5 -4 10 3 6 8 10 11 10 2 0 4 -4 4 -10z"/>
<path d="M3210 639 c0 -6 -7 -9 -14 -6 -10 4 -13 1 -9 -9 5 -13 8 -13 24 2 22
19 23 24 9 24 -5 0 -10 -5 -10 -11z"/>
<path d="M3080 580 c-8 -5 -10 -10 -5 -10 6 0 17 5 25 10 8 5 11 10 5 10 -5 0
-17 -5 -25 -10z"/>
<path d="M2820 556 c0 -2 8 -10 18 -17 15 -13 16 -12 3 4 -13 16 -21 21 -21
13z"/>
<path d="M2753 533 c0 -9 4 -10 14 -2 7 6 13 12 13 14 0 1 -6 2 -13 2 -8 0
-14 -6 -14 -14z"/>
<path d="M2670 519 c0 -5 5 -7 10 -4 6 3 10 8 10 11 0 2 -4 4 -10 4 -5 0 -10
-5 -10 -11z"/>
<path d="M2335 551 c-2 -5 2 -14 10 -21 8 -7 15 -9 15 -4 0 5 5 2 10 -6 6 -9
10 -10 10 -3 0 14 40 13 40 -2 0 -5 5 -3 10 5 8 12 12 13 19 2 7 -11 9 -10 15
3 3 9 11 13 17 9 8 -4 9 -3 5 5 -6 9 -11 9 -22 0 -8 -6 -14 -7 -14 -2 0 5 -15
9 -32 10 -18 0 -43 3 -55 6 -13 3 -25 2 -28 -2z m41 -13 c3 -4 -1 -5 -10 -4
-8 1 -18 5 -22 8 -3 4 1 5 10 4 8 -1 18 -5 22 -8z"/>
<path d="M2474 484 c-18 -14 -18 -15 4 -4 12 6 22 13 22 15 0 8 -5 6 -26 -11z"/>
<path d="M601 1525 c0 -5 3 -16 8 -23 6 -10 10 -10 20 2 9 11 9 16 0 22 -8 4
-9 3 -5 -4 4 -7 3 -12 -3 -12 -5 0 -12 6 -14 13 -3 6 -6 8 -6 2z"/>
<path d="M643 1504 l-11 -24 27 19 c18 13 32 17 41 11 8 -5 17 -7 21 -4 4 2 9
-3 13 -11 3 -8 2 -15 -2 -15 -5 0 -17 -7 -28 -15 -17 -14 -16 -14 13 0 22 10
30 20 27 30 -10 25 5 17 20 -12 8 -16 15 -23 16 -17 0 22 -42 66 -53 55 -6 -6
-16 -7 -28 -1 -12 7 -20 6 -25 -1 -4 -7 -9 -8 -13 -1 -3 6 -11 0 -18 -14z"/>
<path d="M575 1500 c3 -5 11 -10 16 -10 6 0 7 5 4 10 -3 6 -11 10 -16 10 -6 0
-7 -4 -4 -10z"/>
<path d="M664 1486 c-10 -8 -16 -18 -11 -22 4 -4 7 -2 7 4 0 7 4 12 10 12 5 0
7 -8 4 -17 -5 -15 -4 -15 4 -3 6 8 8 18 5 24 -4 5 1 7 11 3 10 -4 15 -3 11 3
-8 14 -18 13 -41 -4z"/>
<path d="M474 1478 c-4 -7 -4 -10 1 -6 4 4 15 2 24 -5 14 -11 14 -10 2 6 -16
20 -18 21 -27 5z"/>
<path d="M525 1480 c-3 -6 1 -7 9 -4 18 7 21 14 7 14 -6 0 -13 -4 -16 -10z"/>
<path d="M590 1470 c-8 -5 -10 -10 -5 -10 6 0 17 5 25 10 8 5 11 10 5 10 -5 0
-17 -5 -25 -10z"/>
<path d="M540 1460 c-8 -5 -10 -10 -5 -10 6 0 17 5 25 10 8 5 11 10 5 10 -5 0
-17 -5 -25 -10z"/>
<path d="M750 1461 c0 -6 4 -13 10 -16 6 -3 7 1 4 9 -7 18 -14 21 -14 7z"/>
<path d="M565 1440 c-3 -6 1 -7 9 -4 18 7 21 14 7 14 -6 0 -13 -4 -16 -10z"/>
<path d="M639 1433 c-13 -16 -12 -17 4 -4 9 7 17 15 17 17 0 8 -8 3 -21 -13z"/>
<path d="M1210 968 c-13 -21 -23 -74 -11 -63 2 3 13 -7 23 -22 24 -37 23 -22
-1 18 -20 32 -18 64 3 52 6 -3 8 -3 4 2 -4 4 -3 14 3 22 6 7 7 13 3 13 -5 0
-16 -10 -24 -22z"/>
<path d="M1230 940 c-12 -7 -10 -9 7 -7 12 0 19 5 17 9 -6 10 -6 10 -24 -2z"/>
<path d="M1276 927 c3 -10 9 -15 12 -12 3 3 0 11 -7 18 -10 9 -11 8 -5 -6z"/>
<path d="M1375 900 c3 -5 8 -10 11 -10 2 0 4 5 4 10 0 6 -5 10 -11 10 -5 0 -7
-4 -4 -10z"/>
<path d="M1186 874 c-8 -22 -4 -25 11 -9 7 8 9 16 4 19 -5 3 -12 -1 -15 -10z"/>
<path d="M1310 861 c0 -6 4 -13 10 -16 6 -3 7 1 4 9 -7 18 -14 21 -14 7z"/>
<path d="M1270 840 c0 -5 5 -10 11 -10 5 0 7 5 4 10 -3 6 -8 10 -11 10 -2 0
-4 -4 -4 -10z"/>
<path d="M3713 835 c0 -8 4 -12 9 -9 5 3 6 10 3 15 -9 13 -12 11 -12 -6z"/>
<path d="M3819 848 c-5 -18 -6 -38 -1 -34 7 8 12 36 6 36 -2 0 -4 -1 -5 -2z"/>
<path d="M1350 825 c0 -7 30 -13 34 -7 3 4 -4 9 -15 9 -10 1 -19 0 -19 -2z"/>
<path d="M3664 822 c4 -3 14 -7 22 -8 9 -1 13 0 10 4 -4 3 -14 7 -22 8 -9 1
-13 0 -10 -4z"/>
<path d="M1513 807 c0 -8 6 -14 14 -14 9 0 10 4 2 14 -6 7 -12 13 -14 13 -1 0
-2 -6 -2 -13z"/>
<path d="M1200 806 c0 -2 8 -10 18 -17 15 -13 16 -12 3 4 -13 16 -21 21 -21
13z"/>
<path d="M3575 799 c-6 -8 -4 -10 5 -4 10 6 12 4 6 -11 -6 -15 -5 -17 5 -6 9
9 10 15 2 23 -8 8 -13 7 -18 -2z"/>
<path d="M3856 802 c-3 -5 1 -9 9 -9 8 0 12 4 9 9 -3 4 -7 8 -9 8 -2 0 -6 -4
-9 -8z"/>
<path d="M1150 780 c0 -5 5 -10 10 -10 6 0 10 5 10 10 0 6 -4 10 -10 10 -5 0
-10 -4 -10 -10z"/>
<path d="M3660 785 c0 -2 6 -8 13 -14 10 -8 14 -7 14 2 0 8 -6 14 -14 14 -7 0
-13 -1 -13 -2z"/>
<path d="M3770 780 c0 -5 5 -10 11 -10 5 0 7 5 4 10 -3 6 -8 10 -11 10 -2 0
-4 -4 -4 -10z"/>
<path d="M1541 766 c14 -15 20 -16 35 -6 18 11 18 11 0 6 -10 -4 -26 -1 -35 6
-14 11 -14 10 0 -6z"/>
<path d="M1415 760 c-3 -5 -1 -10 4 -10 6 0 11 5 11 10 0 6 -2 10 -4 10 -3 0
-8 -4 -11 -10z"/>
<path d="M1496 758 c3 -5 10 -6 15 -3 13 9 11 12 -6 12 -8 0 -12 -4 -9 -9z"/>
<path d="M3630 755 c5 -7 6 -16 2 -21 -4 -5 -3 -5 2 -1 15 12 15 34 0 34 -9 0
-11 -4 -4 -12z"/>
<path d="M1147 746 c-4 -10 -1 -13 8 -9 8 3 12 9 9 14 -7 12 -11 11 -17 -5z"/>
<path d="M3555 749 c-4 -6 -5 -12 -2 -15 2 -3 7 2 10 11 7 17 1 20 -8 4z"/>
<path d="M1087 735 c-9 -7 -17 -16 -17 -20 0 -4 7 -2 16 6 13 11 15 10 12 -6
-1 -10 4 -20 12 -22 12 -4 12 -3 2 5 -11 7 -11 12 2 25 20 20 -2 30 -27 12z"/>
<path d="M1450 739 c0 -5 5 -7 10 -4 6 3 10 8 10 11 0 2 -4 4 -10 4 -5 0 -10
-5 -10 -11z"/>
<path d="M3476 738 c3 -5 8 -7 12 -4 3 3 11 -2 19 -12 13 -16 14 -16 5 2 -5
11 -17 21 -26 22 -9 1 -13 -2 -10 -8z"/>
<path d="M3666 742 c-3 -5 1 -9 9 -9 8 0 12 4 9 9 -3 4 -7 8 -9 8 -2 0 -6 -4
-9 -8z"/>
<path d="M1655 730 c-3 -6 1 -7 9 -4 18 7 21 14 7 14 -6 0 -13 -4 -16 -10z"/>
<path d="M1605 719 c-3 -4 2 -6 10 -5 21 3 28 13 10 13 -9 0 -18 -4 -20 -8z"/>
<path d="M1690 719 c0 -5 -6 -7 -12 -3 -7 4 -5 -2 5 -13 9 -11 14 -23 10 -26
-3 -4 -1 -7 5 -7 14 0 16 16 2 25 -5 3 -7 12 -3 20 3 8 2 15 -1 15 -3 0 -6 -5
-6 -11z"/>
<path d="M3390 705 c-7 -8 -16 -12 -21 -10 -10 6 -33 -34 -25 -43 3 -3 6 0 6
7 0 7 4 10 9 7 5 -3 7 -15 4 -26 -3 -11 -9 -17 -14 -14 -5 3 -12 -2 -15 -10
-3 -9 -11 -13 -16 -10 -6 4 -5 -3 1 -15 14 -25 23 -28 14 -4 -4 11 -3 14 5 9
8 -5 10 -1 5 10 -4 12 -3 15 5 10 14 -8 35 33 41 79 1 6 6 3 11 -5 7 -12 9
-10 7 8 -2 26 -1 26 -17 7z m-10 -36 c0 -6 -4 -7 -10 -4 -5 3 -10 11 -10 16 0
6 5 7 10 4 6 -3 10 -11 10 -16z"/>
<path d="M770 699 c0 -5 5 -7 10 -4 6 3 10 8 10 11 0 2 -4 4 -10 4 -5 0 -10
-5 -10 -11z"/>
<path d="M1645 702 c-5 -4 -11 -14 -13 -22 -2 -12 1 -11 11 2 8 10 18 14 22
10 5 -4 5 -1 1 6 -8 14 -8 14 -21 4z"/>
<path d="M3726 702 c-3 -5 1 -9 9 -9 8 0 12 4 9 9 -3 4 -7 8 -9 8 -2 0 -6 -4
-9 -8z"/>
<path d="M861 691 c-11 -7 -9 -10 8 -16 26 -8 49 4 30 16 -17 11 -21 11 -38 0z"/>
<path d="M1310 696 c0 -2 8 -10 18 -17 15 -13 16 -12 3 4 -13 16 -21 21 -21
13z"/>
<path d="M3533 678 c-1 -11 1 -16 5 -12 4 5 11 12 15 15 5 3 2 9 -5 12 -9 3
-14 -3 -15 -15z"/>
<path d="M926 675 c4 -10 2 -15 -6 -13 -7 2 -15 -4 -17 -12 -4 -13 -3 -13 6 0
6 8 11 11 11 7 0 -4 9 -3 19 2 14 8 22 7 30 -3 6 -7 8 -16 4 -19 -3 -4 -1 -7
5 -7 16 0 15 13 0 29 -11 11 -8 12 12 6 24 -7 24 -7 5 8 -11 8 -22 12 -25 8
-6 -9 -22 -8 -37 2 -9 6 -11 3 -7 -8z"/>
<path d="M1396 673 c-6 -14 -5 -15 5 -6 7 7 10 15 7 18 -3 3 -9 -2 -12 -12z"/>
<path d="M3320 680 c-9 -6 -10 -10 -3 -10 6 0 15 5 18 10 8 12 4 12 -15 0z"/>
<path d="M3430 680 c-12 -7 -10 -9 7 -7 12 0 19 5 17 9 -6 10 -6 10 -24 -2z"/>
<path d="M3474 678 c-4 -7 -4 -10 1 -6 4 4 14 3 22 -4 11 -8 12 -7 7 6 -7 19
-20 21 -30 4z"/>
<path d="M1655 670 c-3 -6 1 -7 9 -4 18 7 21 14 7 14 -6 0 -13 -4 -16 -10z"/>
<path d="M842 658 c-7 -7 -12 -17 -12 -22 0 -6 5 -3 11 7 6 9 15 14 21 11 7
-4 8 -2 4 4 -9 15 -9 15 -24 0z"/>
<path d="M1126 658 c3 -5 10 -6 15 -3 13 9 11 12 -6 12 -8 0 -12 -4 -9 -9z"/>
<path d="M1706 643 l-17 -28 19 22 c11 12 23 19 27 15 5 -4 5 -1 1 6 -10 17
-11 16 -30 -15z"/>
<path d="M3396 655 c-3 -8 2 -19 13 -24 13 -7 18 -6 18 4 0 7 -6 11 -14 8 -9
-4 -11 0 -7 11 3 9 4 16 1 16 -3 0 -7 -7 -11 -15z"/>
<path d="M3587 659 c7 -7 15 -10 18 -7 3 3 -2 9 -12 12 -14 6 -15 5 -6 -5z"/>
<path d="M1070 650 c-9 -6 -10 -10 -3 -10 6 0 15 5 18 10 8 12 4 12 -15 0z"/>
<path d="M3315 650 c3 -6 -1 -13 -9 -16 -9 -3 -16 -10 -16 -15 0 -5 9 -4 20 3
21 14 27 38 9 38 -5 0 -7 -5 -4 -10z"/>
<path d="M3440 655 c0 -5 5 -17 10 -25 5 -8 10 -10 10 -5 0 6 -5 17 -10 25 -5
8 -10 11 -10 5z"/>
<path d="M935 640 c-3 -6 1 -7 9 -4 18 7 21 14 7 14 -6 0 -13 -4 -16 -10z"/>
<path d="M3519 633 c-12 -16 -12 -17 2 -6 9 7 20 9 24 5 5 -4 5 -1 1 6 -9 16
-11 15 -27 -5z"/>
<path d="M3745 640 c-3 -6 1 -7 9 -4 18 7 21 14 7 14 -6 0 -13 -4 -16 -10z"/>
<path d="M1036 627 c3 -10 9 -15 12 -12 3 3 0 11 -7 18 -10 9 -11 8 -5 -6z"/>
<path d="M1093 625 c0 -8 4 -12 9 -9 5 3 6 10 3 15 -9 13 -12 11 -12 -6z"/>
<path d="M3470 636 c0 -2 8 -10 18 -17 15 -13 16 -12 3 4 -13 16 -21 21 -21
13z"/>
<path d="M874 608 l-19 -23 23 19 c12 11 22 21 22 23 0 8 -8 2 -26 -19z"/>
<path d="M953 615 c0 -8 4 -12 9 -9 5 3 6 10 3 15 -9 13 -12 11 -12 -6z"/>
<path d="M1013 623 c4 -3 -1 -16 -10 -27 -18 -21 -18 -21 4 -2 20 16 23 36 6
36 -4 0 -3 -3 0 -7z"/>
<path d="M1770 610 c-6 -11 -8 -20 -6 -20 3 0 10 9 16 20 6 11 8 20 6 20 -3 0
-10 -9 -16 -20z"/>
<path d="M1740 610 c0 -5 -8 -7 -17 -3 -19 6 -18 5 7 -14 13 -10 16 -8 17 8 1
10 0 19 -3 19 -2 0 -4 -4 -4 -10z"/>
<path d="M3395 610 c-4 -6 -11 -8 -16 -5 -5 4 -9 1 -9 -4 0 -16 16 -13 30 4 7
8 10 15 7 15 -3 0 -9 -5 -12 -10z"/>
<path d="M3454 602 c4 -3 14 -7 22 -8 9 -1 13 0 10 4 -4 3 -14 7 -22 8 -9 1
-13 0 -10 -4z"/>
<path d="M3633 595 c0 -8 4 -12 9 -9 5 3 6 10 3 15 -9 13 -12 11 -12 -6z"/>
<path d="M3232 564 c-7 -8 -8 -14 -3 -14 10 0 25 19 20 25 -2 1 -10 -3 -17
-11z"/>
<path d="M3456 567 c3 -10 9 -15 12 -12 3 3 0 11 -7 18 -10 9 -11 8 -5 -6z"/>
<path d="M1810 561 c0 -6 4 -12 8 -15 5 -3 9 1 9 9 0 8 -4 15 -9 15 -4 0 -8
-4 -8 -9z"/>
<path d="M1890 562 c0 -5 7 -9 15 -9 8 0 12 4 9 9 -3 4 -9 8 -15 8 -5 0 -9 -4
-9 -8z"/>
<path d="M3190 563 c0 -5 5 -15 10 -23 7 -12 9 -10 7 8 -1 19 -17 33 -17 15z"/>
<path d="M1655 540 c-3 -5 -1 -10 4 -10 6 0 11 5 11 10 0 6 -2 10 -4 10 -3 0
-8 -4 -11 -10z"/>
<path d="M1690 539 c0 -5 5 -7 10 -4 6 3 10 8 10 11 0 2 -4 4 -10 4 -5 0 -10
-5 -10 -11z"/>
<path d="M1868 543 c6 -2 9 -10 6 -15 -4 -7 -2 -8 5 -4 13 9 5 26 -12 25 -9 0
-8 -2 1 -6z"/>
<path d="M1992 529 c-7 -12 -11 -24 -8 -27 3 -3 6 0 6 7 0 7 4 10 8 7 4 -2 9
4 9 15 2 24 1 24 -15 -2z"/>
<path d="M3355 540 c-3 -5 -1 -10 4 -10 6 0 11 5 11 10 0 6 -2 10 -4 10 -3 0
-8 -4 -11 -10z"/>
<path d="M3573 529 c-2 -23 3 -25 10 -4 4 8 3 16 -1 19 -4 3 -9 -4 -9 -15z"/>
<path d="M1840 526 c0 -2 8 -10 18 -17 15 -13 16 -12 3 4 -13 16 -21 21 -21
13z"/>
<path d="M2050 523 c0 -5 14 -9 31 -9 35 -2 33 5 -5 12 -14 2 -26 1 -26 -3z"/>
<path d="M3319 513 c-13 -16 -12 -17 4 -4 16 13 21 21 13 21 -2 0 -10 -8 -17
-17z"/>
<path d="M2180 505 c-7 -9 -10 -18 -6 -22 3 -3 6 -1 6 5 0 6 7 9 15 6 8 -4 15
-14 15 -23 0 -14 2 -14 10 -1 7 11 4 18 -11 25 -11 6 -16 14 -13 18 4 4 5 7 2
7 -3 0 -11 -7 -18 -15z"/>
<path d="M3110 510 c8 -5 20 -10 25 -10 6 0 3 5 -5 10 -8 5 -19 10 -25 10 -5
0 -3 -5 5 -10z"/>
<path d="M1693 495 c0 -8 4 -12 9 -9 5 3 6 10 3 15 -9 13 -12 11 -12 -6z"/>
<path d="M1940 506 c0 -2 8 -10 18 -17 15 -13 16 -12 3 4 -13 16 -21 21 -21
13z"/>
<path d="M2015 501 c-3 -5 -2 -12 3 -15 5 -3 9 1 9 9 0 17 -3 19 -12 6z"/>
<path d="M2109 489 c-9 -17 -8 -20 2 -14 8 6 11 4 7 -7 -4 -8 -1 -15 7 -15 8
0 11 7 7 15 -4 11 -1 13 8 7 9 -5 11 -4 6 4 -4 6 -12 8 -18 5 -7 -5 -9 -1 -5
9 9 24 0 21 -14 -4z"/>
<path d="M3271 494 c6 -7 7 -19 3 -25 -4 -7 -3 -9 4 -5 15 9 11 43 -5 43 -9 0
-10 -4 -2 -13z"/>
<path d="M3410 499 c0 -5 5 -7 10 -4 6 3 10 8 10 11 0 2 -4 4 -10 4 -5 0 -10
-5 -10 -11z"/>
<path d="M2079 493 c0 -5 -2 -16 -4 -25 -2 -10 0 -20 4 -22 3 -2 7 9 7 25 1
16 0 29 -2 29 -2 0 -4 -3 -5 -7z"/>
<path d="M1820 486 c0 -2 8 -10 18 -17 15 -13 16 -12 3 4 -13 16 -21 21 -21
13z"/>
<path d="M1976 473 c-6 -14 -5 -15 5 -6 7 7 10 15 7 18 -3 3 -9 -2 -12 -12z"/>
<path d="M2930 480 c0 -5 5 -10 10 -10 6 0 10 5 10 10 0 6 -4 10 -10 10 -5 0
-10 -4 -10 -10z"/>
<path d="M3010 480 c0 -5 5 -10 10 -10 6 0 10 5 10 10 0 6 -4 10 -10 10 -5 0
-10 -4 -10 -10z"/>
<path d="M3133 475 c0 -8 4 -12 9 -9 4 3 8 9 8 15 0 5 -4 9 -8 9 -5 0 -9 -7
-9 -15z"/>
<path d="M3310 482 c0 -5 7 -9 15 -9 8 0 12 4 9 9 -3 4 -9 8 -15 8 -5 0 -9 -4
-9 -8z"/>
<path d="M2174 462 c3 -6 -2 -15 -11 -21 -10 -6 -13 -11 -7 -11 20 0 37 27 23
36 -7 4 -9 3 -5 -4z"/>
<path d="M2270 460 c0 -5 5 -10 10 -10 6 0 10 5 10 10 0 6 -4 10 -10 10 -5 0
-10 -4 -10 -10z"/>
<path d="M2350 460 c-12 -7 -10 -9 7 -7 12 0 19 5 17 9 -6 10 -6 10 -24 -2z"/>
<path d="M2413 455 c-3 -9 -3 -19 1 -22 3 -4 6 2 6 12 0 15 2 16 18 4 15 -13
16 -12 3 4 -17 21 -20 21 -28 2z"/>
<path d="M3415 461 c-3 -5 -2 -12 3 -15 5 -3 9 1 9 9 0 17 -3 19 -12 6z"/>
<path d="M2906 443 c-6 -14 -5 -15 5 -6 7 7 10 15 7 18 -3 3 -9 -2 -12 -12z"/>
<path d="M1980 445 c0 -2 6 -8 13 -14 10 -8 14 -7 14 2 0 8 -6 14 -14 14 -7 0
-13 -1 -13 -2z"/>
<path d="M2200 446 c0 -2 8 -10 18 -17 15 -13 16 -12 3 4 -13 16 -21 21 -21
13z"/>
<path d="M2310 428 c-12 -22 -12 -22 6 -6 10 10 15 20 12 24 -4 3 -12 -5 -18
-18z"/>
<path d="M2551 431 c-9 -17 -8 -18 11 -13 13 3 17 7 10 10 -7 2 -10 8 -6 13 3
5 3 9 0 9 -3 0 -10 -9 -15 -19z"/>
<path d="M2845 440 c-3 -6 1 -7 9 -4 18 7 21 14 7 14 -6 0 -13 -4 -16 -10z"/>
<path d="M3150 440 c0 -5 5 -10 11 -10 5 0 7 5 4 10 -3 6 -8 10 -11 10 -2 0
-4 -4 -4 -10z"/>
<path d="M3190 436 c7 -7 13 -7 20 0 6 6 3 10 -10 10 -13 0 -16 -4 -10 -10z"/>
<path d="M1935 431 c-3 -5 -2 -12 3 -15 5 -3 9 1 9 9 0 17 -3 19 -12 6z"/>
<path d="M2270 425 c-11 -13 -10 -14 4 -9 9 3 16 10 16 15 0 13 -6 11 -20 -6z"/>
<path d="M2360 436 c0 -2 7 -7 16 -10 8 -3 12 -2 9 4 -6 10 -25 14 -25 6z"/>
<path d="M2717 429 c7 -7 15 -10 18 -7 3 3 -2 9 -12 12 -14 6 -15 5 -6 -5z"/>
<path d="M2935 430 c-3 -6 1 -7 9 -4 18 7 21 14 7 14 -6 0 -13 -4 -16 -10z"/>
<path d="M2995 431 c-3 -5 -2 -12 3 -15 5 -3 9 1 9 9 0 17 -3 19 -12 6z"/>
<path d="M2437 417 c4 -6 0 -8 -10 -4 -10 4 -14 2 -11 -7 3 -7 11 -13 19 -13
8 0 13 3 10 5 -3 3 0 10 5 17 7 8 5 12 -5 12 -8 0 -11 -5 -8 -10z"/>
<path d="M2674 406 c1 -14 4 -28 7 -31 3 -3 5 6 5 19 -1 14 -4 28 -7 31 -3 3
-5 -6 -5 -19z"/>
<path d="M2355 400 c2 -27 10 -33 12 -10 1 11 -2 22 -6 24 -4 3 -7 -4 -6 -14z"/>
<path d="M2519 418 c-5 -18 -6 -38 -1 -34 7 8 12 36 6 36 -2 0 -4 -1 -5 -2z"/>
<path d="M2895 409 c-4 -6 -5 -12 -2 -15 2 -3 7 2 10 11 7 17 1 20 -8 4z"/>
<path d="M2015 400 c-3 -5 -1 -10 4 -10 6 0 11 5 11 10 0 6 -2 10 -4 10 -3 0
-8 -4 -11 -10z"/>
<path d="M2130 399 c0 -5 5 -7 10 -4 6 3 10 8 10 11 0 2 -4 4 -10 4 -5 0 -10
-5 -10 -11z"/>
<path d="M2196 393 c-6 -14 -5 -15 5 -6 7 7 10 15 7 18 -3 3 -9 -2 -12 -12z"/>
<path d="M2220 406 c0 -2 8 -10 18 -17 15 -13 16 -12 3 4 -13 16 -21 21 -21
13z"/>
<path d="M2560 405 c0 -2 6 -8 13 -14 10 -8 14 -7 14 2 0 8 -6 14 -14 14 -7 0
-13 -1 -13 -2z"/>
<path d="M2726 398 c3 -5 10 -6 15 -3 13 9 11 12 -6 12 -8 0 -12 -4 -9 -9z"/>
<path d="M2840 400 c-9 -6 -10 -10 -3 -10 6 0 15 5 18 10 8 12 4 12 -15 0z"/>
<path d="M2977 395 c-4 -8 -3 -16 1 -19 4 -3 9 4 9 15 2 23 -3 25 -10 4z"/>
<path d="M3090 380 c0 -5 5 -10 11 -10 5 0 7 5 4 10 -3 6 -8 10 -11 10 -2 0
-4 -4 -4 -10z"/>
<path d="M3155 380 c-3 -5 -1 -10 4 -10 6 0 11 5 11 10 0 6 -2 10 -4 10 -3 0
-8 -4 -11 -10z"/>
<path d="M2195 360 c-3 -5 -1 -10 4 -10 6 0 11 5 11 10 0 6 -2 10 -4 10 -3 0
-8 -4 -11 -10z"/>
<path d="M2777 355 c-4 -8 -3 -16 1 -19 4 -3 9 4 9 15 2 23 -3 25 -10 4z"/>
<path d="M2290 345 c0 -7 30 -13 34 -7 3 4 -4 9 -15 9 -10 1 -19 0 -19 -2z"/>
<path d="M2416 338 c3 -5 10 -6 15 -3 13 9 11 12 -6 12 -8 0 -12 -4 -9 -9z"/>
<path d="M2455 340 c-3 -5 -1 -10 4 -10 6 0 11 5 11 10 0 6 -2 10 -4 10 -3 0
-8 -4 -11 -10z"/>
<path d="M2535 340 c3 -5 8 -10 11 -10 2 0 4 5 4 10 0 6 -5 10 -11 10 -5 0 -7
-4 -4 -10z"/>
<path d="M2730 339 c0 -5 5 -7 10 -4 6 3 10 8 10 11 0 2 -4 4 -10 4 -5 0 -10
-5 -10 -11z"/>
<path d="M2895 341 c-3 -5 -2 -12 3 -15 5 -3 9 1 9 9 0 17 -3 19 -12 6z"/>
<path d="M3136 247 c3 -10 9 -15 12 -12 3 3 0 11 -7 18 -10 9 -11 8 -5 -6z"/>
</g>
</svg>
